<svg xmlns="http://www.w3.org/2000/svg" version="1.1" xmlns:xlink="http://www.w3.org/1999/xlink" xmlns:svgjs="http://svgjs.dev/svgjs" width="1440" height="560" preserveAspectRatio="none" viewBox="0 0 1440 560"><g mask="url(&quot;#SvgjsMask1663&quot;)" fill="none"><use xlink:href="#SvgjsG1666" transform="translate(0, 0)" fill="rgba(61, 61, 61, 1)"></use><use xlink:href="#SvgjsG1666" transform="translate(648.0000000000001, 0)" fill="rgba(61, 61, 61, 1)"></use><use xlink:href="#SvgjsG1666" transform="translate(1296.0000000000002, 0)" fill="rgba(61, 61, 61, 1)"></use></g><defs><mask id="SvgjsMask1663"><rect width="1440" height="560" fill="#ffffff"></rect></mask><g id="SvgjsG1664"><path d="M15.769 13.134v-0.004s-3.022-3.019-3.024-3.02a0.605 0.605 0 0 0-0.858 0.002L10.496 11.509c-0.541 0.541-1.238 0.061-2.577-1.031-0.886-0.722-1.905-1.693-2.788-2.788-0.62-0.768-1.168-1.575-0.602-2.141 0.001-0.001 1.397-1.393 1.398-1.395l0.001-0.003c0.251-0.25 0.226-0.634-0.003-0.862v-0.004L2.813 0.177c-0.24-0.239-0.623-0.234-0.858 0.002L0.553 1.58C-0.024 2.303-1.307 5.747 4.194 11.385c5.795 5.94 9.534 4.669 10.177 3.999 0 0 1.4-1.383 1.4-1.384l0.001-0.003c0.251-0.251 0.225-0.635-0.002-0.864z"></path></g><g id="SvgjsG1665"><path d="M5.534 5.272L8.008 0l2.474 5.272 5.534 0.845-4.004 4.103 0.945 5.795L8.008 13.279 3.06 16.015l0.945-5.795L0.001 6.117z"></path></g><g id="SvgjsG1666"><use xlink:href="#SvgjsG1664" transform="translate(0, 0) scale(2.7)" fill="rgba(61, 61, 61, 1)"></use><use xlink:href="#SvgjsG1665" transform="translate(0, 64.80000000000001) scale(2.7)" fill="rgba(61, 61, 61, 1)"></use><use xlink:href="#SvgjsG1664" transform="translate(0, 129.60000000000002) scale(2.7)" fill="rgba(61, 61, 61, 1)"></use><use xlink:href="#SvgjsG1665" transform="translate(0, 194.40000000000003) scale(2.7)" fill="rgba(61, 61, 61, 1)"></use><use xlink:href="#SvgjsG1664" transform="translate(0, 259.20000000000005) scale(2.7)" fill="rgba(61, 61, 61, 1)"></use><use xlink:href="#SvgjsG1665" transform="translate(0, 324.00000000000006) scale(2.7)" fill="rgba(61, 61, 61, 1)"></use><use xlink:href="#SvgjsG1664" transform="translate(0, 388.80000000000007) scale(2.7)" fill="rgba(61, 61, 61, 1)"></use><use xlink:href="#SvgjsG1665" transform="translate(0, 453.6000000000001) scale(2.7)" fill="rgba(61, 61, 61, 1)"></use><use xlink:href="#SvgjsG1664" transform="translate(0, 518.4000000000001) scale(2.7)" fill="rgba(61, 61, 61, 1)"></use><use xlink:href="#SvgjsG1665" transform="translate(64.80000000000001, 0) scale(2.7)" fill="rgba(61, 61, 61, 1)"></use><use xlink:href="#SvgjsG1664" transform="translate(64.80000000000001, 64.80000000000001) scale(2.7)" fill="rgba(61, 61, 61, 1)"></use><use xlink:href="#SvgjsG1665" transform="translate(64.80000000000001, 129.60000000000002) scale(2.7)" fill="rgba(61, 61, 61, 1)"></use><use xlink:href="#SvgjsG1664" transform="translate(64.80000000000001, 194.40000000000003) scale(2.7)" fill="rgba(61, 61, 61, 1)"></use><use xlink:href="#SvgjsG1665" transform="translate(64.80000000000001, 259.20000000000005) scale(2.7)" fill="rgba(61, 61, 61, 1)"></use><use xlink:href="#SvgjsG1664" transform="translate(64.80000000000001, 324.00000000000006) scale(2.7)" fill="rgba(61, 61, 61, 1)"></use><use xlink:href="#SvgjsG1665" transform="translate(64.80000000000001, 388.80000000000007) scale(2.7)" fill="rgba(61, 61, 61, 1)"></use><use xlink:href="#SvgjsG1664" transform="translate(64.80000000000001, 453.6000000000001) scale(2.7)" fill="rgba(61, 61, 61, 1)"></use><use xlink:href="#SvgjsG1665" transform="translate(64.80000000000001, 518.4000000000001) scale(2.7)" fill="rgba(61, 61, 61, 1)"></use><use xlink:href="#SvgjsG1664" transform="translate(129.60000000000002, 0) scale(2.7)" fill="rgba(61, 61, 61, 1)"></use><use xlink:href="#SvgjsG1665" transform="translate(129.60000000000002, 64.80000000000001) scale(2.7)" fill="rgba(61, 61, 61, 1)"></use><use xlink:href="#SvgjsG1664" transform="translate(129.60000000000002, 129.60000000000002) scale(2.7)" fill="rgba(61, 61, 61, 1)"></use><use xlink:href="#SvgjsG1665" transform="translate(129.60000000000002, 194.40000000000003) scale(2.7)" fill="rgba(61, 61, 61, 1)"></use><use xlink:href="#SvgjsG1664" transform="translate(129.60000000000002, 259.20000000000005) scale(2.7)" fill="rgba(61, 61, 61, 1)"></use><use xlink:href="#SvgjsG1665" transform="translate(129.60000000000002, 324.00000000000006) scale(2.7)" fill="rgba(61, 61, 61, 1)"></use><use xlink:href="#SvgjsG1664" transform="translate(129.60000000000002, 388.80000000000007) scale(2.7)" fill="rgba(61, 61, 61, 1)"></use><use xlink:href="#SvgjsG1665" transform="translate(129.60000000000002, 453.6000000000001) scale(2.7)" fill="rgba(61, 61, 61, 1)"></use><use xlink:href="#SvgjsG1664" transform="translate(129.60000000000002, 518.4000000000001) scale(2.7)" fill="rgba(61, 61, 61, 1)"></use><use xlink:href="#SvgjsG1665" transform="translate(194.40000000000003, 0) scale(2.7)" fill="rgba(61, 61, 61, 1)"></use><use xlink:href="#SvgjsG1664" transform="translate(194.40000000000003, 64.80000000000001) scale(2.7)" fill="rgba(61, 61, 61, 1)"></use><use xlink:href="#SvgjsG1665" transform="translate(194.40000000000003, 129.60000000000002) scale(2.7)" fill="rgba(61, 61, 61, 1)"></use><use xlink:href="#SvgjsG1664" transform="translate(194.40000000000003, 194.40000000000003) scale(2.7)" fill="rgba(61, 61, 61, 1)"></use><use xlink:href="#SvgjsG1665" transform="translate(194.40000000000003, 259.20000000000005) scale(2.7)" fill="rgba(61, 61, 61, 1)"></use><use xlink:href="#SvgjsG1664" transform="translate(194.40000000000003, 324.00000000000006) scale(2.7)" fill="rgba(61, 61, 61, 1)"></use><use xlink:href="#SvgjsG1665" transform="translate(194.40000000000003, 388.80000000000007) scale(2.7)" fill="rgba(61, 61, 61, 1)"></use><use xlink:href="#SvgjsG1664" transform="translate(194.40000000000003, 453.6000000000001) scale(2.7)" fill="rgba(61, 61, 61, 1)"></use><use xlink:href="#SvgjsG1665" transform="translate(194.40000000000003, 518.4000000000001) scale(2.7)" fill="rgba(61, 61, 61, 1)"></use><use xlink:href="#SvgjsG1664" transform="translate(259.20000000000005, 0) scale(2.7)" fill="rgba(61, 61, 61, 1)"></use><use xlink:href="#SvgjsG1665" transform="translate(259.20000000000005, 64.80000000000001) scale(2.7)" fill="rgba(61, 61, 61, 1)"></use><use xlink:href="#SvgjsG1664" transform="translate(259.20000000000005, 129.60000000000002) scale(2.7)" fill="rgba(61, 61, 61, 1)"></use><use xlink:href="#SvgjsG1665" transform="translate(259.20000000000005, 194.40000000000003) scale(2.7)" fill="rgba(61, 61, 61, 1)"></use><use xlink:href="#SvgjsG1664" transform="translate(259.20000000000005, 259.20000000000005) scale(2.7)" fill="rgba(61, 61, 61, 1)"></use><use xlink:href="#SvgjsG1665" transform="translate(259.20000000000005, 324.00000000000006) scale(2.7)" fill="rgba(61, 61, 61, 1)"></use><use xlink:href="#SvgjsG1664" transform="translate(259.20000000000005, 388.80000000000007) scale(2.7)" fill="rgba(61, 61, 61, 1)"></use><use xlink:href="#SvgjsG1665" transform="translate(259.20000000000005, 453.6000000000001) scale(2.7)" fill="rgba(61, 61, 61, 1)"></use><use xlink:href="#SvgjsG1664" transform="translate(259.20000000000005, 518.4000000000001) scale(2.7)" fill="rgba(61, 61, 61, 1)"></use><use xlink:href="#SvgjsG1665" transform="translate(324.00000000000006, 0) scale(2.7)" fill="rgba(61, 61, 61, 1)"></use><use xlink:href="#SvgjsG1664" transform="translate(324.00000000000006, 64.80000000000001) scale(2.7)" fill="rgba(61, 61, 61, 1)"></use><use xlink:href="#SvgjsG1665" transform="translate(324.00000000000006, 129.60000000000002) scale(2.7)" fill="rgba(61, 61, 61, 1)"></use><use xlink:href="#SvgjsG1664" transform="translate(324.00000000000006, 194.40000000000003) scale(2.7)" fill="rgba(61, 61, 61, 1)"></use><use xlink:href="#SvgjsG1665" transform="translate(324.00000000000006, 259.20000000000005) scale(2.7)" fill="rgba(61, 61, 61, 1)"></use><use xlink:href="#SvgjsG1664" transform="translate(324.00000000000006, 324.00000000000006) scale(2.7)" fill="rgba(61, 61, 61, 1)"></use><use xlink:href="#SvgjsG1665" transform="translate(324.00000000000006, 388.80000000000007) scale(2.7)" fill="rgba(61, 61, 61, 1)"></use><use xlink:href="#SvgjsG1664" transform="translate(324.00000000000006, 453.6000000000001) scale(2.7)" fill="rgba(61, 61, 61, 1)"></use><use xlink:href="#SvgjsG1665" transform="translate(324.00000000000006, 518.4000000000001) scale(2.7)" fill="rgba(61, 61, 61, 1)"></use><use xlink:href="#SvgjsG1664" transform="translate(388.80000000000007, 0) scale(2.7)" fill="rgba(61, 61, 61, 1)"></use><use xlink:href="#SvgjsG1665" transform="translate(388.80000000000007, 64.80000000000001) scale(2.7)" fill="rgba(61, 61, 61, 1)"></use><use xlink:href="#SvgjsG1664" transform="translate(388.80000000000007, 129.60000000000002) scale(2.7)" fill="rgba(61, 61, 61, 1)"></use><use xlink:href="#SvgjsG1665" transform="translate(388.80000000000007, 194.40000000000003) scale(2.7)" fill="rgba(61, 61, 61, 1)"></use><use xlink:href="#SvgjsG1664" transform="translate(388.80000000000007, 259.20000000000005) scale(2.7)" fill="rgba(61, 61, 61, 1)"></use><use xlink:href="#SvgjsG1665" transform="translate(388.80000000000007, 324.00000000000006) scale(2.7)" fill="rgba(61, 61, 61, 1)"></use><use xlink:href="#SvgjsG1664" transform="translate(388.80000000000007, 388.80000000000007) scale(2.7)" fill="rgba(61, 61, 61, 1)"></use><use xlink:href="#SvgjsG1665" transform="translate(388.80000000000007, 453.6000000000001) scale(2.7)" fill="rgba(61, 61, 61, 1)"></use><use xlink:href="#SvgjsG1664" transform="translate(388.80000000000007, 518.4000000000001) scale(2.7)" fill="rgba(61, 61, 61, 1)"></use><use xlink:href="#SvgjsG1665" transform="translate(453.6000000000001, 0) scale(2.7)" fill="rgba(61, 61, 61, 1)"></use><use xlink:href="#SvgjsG1664" transform="translate(453.6000000000001, 64.80000000000001) scale(2.7)" fill="rgba(61, 61, 61, 1)"></use><use xlink:href="#SvgjsG1665" transform="translate(453.6000000000001, 129.60000000000002) scale(2.7)" fill="rgba(61, 61, 61, 1)"></use><use xlink:href="#SvgjsG1664" transform="translate(453.6000000000001, 194.40000000000003) scale(2.7)" fill="rgba(61, 61, 61, 1)"></use><use xlink:href="#SvgjsG1665" transform="translate(453.6000000000001, 259.20000000000005) scale(2.7)" fill="rgba(61, 61, 61, 1)"></use><use xlink:href="#SvgjsG1664" transform="translate(453.6000000000001, 324.00000000000006) scale(2.7)" fill="rgba(61, 61, 61, 1)"></use><use xlink:href="#SvgjsG1665" transform="translate(453.6000000000001, 388.80000000000007) scale(2.7)" fill="rgba(61, 61, 61, 1)"></use><use xlink:href="#SvgjsG1664" transform="translate(453.6000000000001, 453.6000000000001) scale(2.7)" fill="rgba(61, 61, 61, 1)"></use><use xlink:href="#SvgjsG1665" transform="translate(453.6000000000001, 518.4000000000001) scale(2.7)" fill="rgba(61, 61, 61, 1)"></use><use xlink:href="#SvgjsG1664" transform="translate(518.4000000000001, 0) scale(2.7)" fill="rgba(61, 61, 61, 1)"></use><use xlink:href="#SvgjsG1665" transform="translate(518.4000000000001, 64.80000000000001) scale(2.7)" fill="rgba(61, 61, 61, 1)"></use><use xlink:href="#SvgjsG1664" transform="translate(518.4000000000001, 129.60000000000002) scale(2.7)" fill="rgba(61, 61, 61, 1)"></use><use xlink:href="#SvgjsG1665" transform="translate(518.4000000000001, 194.40000000000003) scale(2.7)" fill="rgba(61, 61, 61, 1)"></use><use xlink:href="#SvgjsG1664" transform="translate(518.4000000000001, 259.20000000000005) scale(2.7)" fill="rgba(61, 61, 61, 1)"></use><use xlink:href="#SvgjsG1665" transform="translate(518.4000000000001, 324.00000000000006) scale(2.7)" fill="rgba(61, 61, 61, 1)"></use><use xlink:href="#SvgjsG1664" transform="translate(518.4000000000001, 388.80000000000007) scale(2.7)" fill="rgba(61, 61, 61, 1)"></use><use xlink:href="#SvgjsG1665" transform="translate(518.4000000000001, 453.6000000000001) scale(2.7)" fill="rgba(61, 61, 61, 1)"></use><use xlink:href="#SvgjsG1664" transform="translate(518.4000000000001, 518.4000000000001) scale(2.7)" fill="rgba(61, 61, 61, 1)"></use><use xlink:href="#SvgjsG1665" transform="translate(583.2, 0) scale(2.7)" fill="rgba(61, 61, 61, 1)"></use><use xlink:href="#SvgjsG1664" transform="translate(583.2, 64.80000000000001) scale(2.7)" fill="rgba(61, 61, 61, 1)"></use><use xlink:href="#SvgjsG1665" transform="translate(583.2, 129.60000000000002) scale(2.7)" fill="rgba(61, 61, 61, 1)"></use><use xlink:href="#SvgjsG1664" transform="translate(583.2, 194.40000000000003) scale(2.7)" fill="rgba(61, 61, 61, 1)"></use><use xlink:href="#SvgjsG1665" transform="translate(583.2, 259.20000000000005) scale(2.7)" fill="rgba(61, 61, 61, 1)"></use><use xlink:href="#SvgjsG1664" transform="translate(583.2, 324.00000000000006) scale(2.7)" fill="rgba(61, 61, 61, 1)"></use><use xlink:href="#SvgjsG1665" transform="translate(583.2, 388.80000000000007) scale(2.7)" fill="rgba(61, 61, 61, 1)"></use><use xlink:href="#SvgjsG1664" transform="translate(583.2, 453.6000000000001) scale(2.7)" fill="rgba(61, 61, 61, 1)"></use><use xlink:href="#SvgjsG1665" transform="translate(583.2, 518.4000000000001) scale(2.7)" fill="rgba(61, 61, 61, 1)"></use></g></defs></svg>