<svg id="visual" viewBox="0 0 960 540" width="960" height="540" xmlns="http://www.w3.org/2000/svg" xmlns:xlink="http://www.w3.org/1999/xlink" version="1.1"><g stroke-width="1" stroke-linejoin="bevel"><path d="M473 267L441 266L440 309Z" fill="#744259" stroke="#3a2525"></path><path d="M440 309L472 324L473 267Z" fill="#302c36" stroke="#3a2525"></path><path d="M530 279L482 233L473 267Z" fill="#5a3c52" stroke="#3a2525"></path><path d="M473 267L482 233L441 266Z" fill="#744259" stroke="#3a2525"></path><path d="M433 217L390 279L441 266Z" fill="#433546" stroke="#3a2525"></path><path d="M441 266L390 279L440 309Z" fill="#8e485b" stroke="#3a2525"></path><path d="M390 279L390 321L440 309Z" fill="#433546" stroke="#3a2525"></path><path d="M425 368L491 360L472 324Z" fill="#232324" stroke="#3a2525"></path><path d="M472 324L530 279L473 267Z" fill="#8e485b" stroke="#3a2525"></path><path d="M482 233L433 217L441 266Z" fill="#302c36" stroke="#3a2525"></path><path d="M425 368L472 324L440 309Z" fill="#8e485b" stroke="#3a2525"></path><path d="M472 324L529 322L530 279Z" fill="#744259" stroke="#3a2525"></path><path d="M491 360L529 322L472 324Z" fill="#cf9728" stroke="#3a2525"></path><path d="M390 321L425 368L440 309Z" fill="#8e485b" stroke="#3a2525"></path><path d="M491 360L525 350L529 322Z" fill="#232324" stroke="#3a2525"></path><path d="M530 279L521 219L482 233Z" fill="#cf8036" stroke="#3a2525"></path><path d="M482 233L484 179L433 217Z" fill="#cf8036" stroke="#3a2525"></path><path d="M390 321L394 367L425 368Z" fill="#c86d44" stroke="#3a2525"></path><path d="M433 217L374 227L390 279Z" fill="#ba5c4f" stroke="#3a2525"></path><path d="M390 279L341 315L390 321Z" fill="#5a3c52" stroke="#3a2525"></path><path d="M390 321L341 315L394 367Z" fill="#ba5c4f" stroke="#3a2525"></path><path d="M394 367L425 394L425 368Z" fill="#c86d44" stroke="#3a2525"></path><path d="M425 368L425 394L491 360Z" fill="#8e485b" stroke="#3a2525"></path><path d="M491 360L526 405L525 350Z" fill="#8e485b" stroke="#3a2525"></path><path d="M521 219L484 179L482 233Z" fill="#c86d44" stroke="#3a2525"></path><path d="M433 217L377 173L374 227Z" fill="#744259" stroke="#3a2525"></path><path d="M374 227L343 262L390 279Z" fill="#433546" stroke="#3a2525"></path><path d="M570 319L573 276L530 279Z" fill="#cf9728" stroke="#3a2525"></path><path d="M530 279L568 224L521 219Z" fill="#744259" stroke="#3a2525"></path><path d="M570 319L530 279L529 322Z" fill="#cf9728" stroke="#3a2525"></path><path d="M525 350L570 319L529 322Z" fill="#744259" stroke="#3a2525"></path><path d="M343 262L341 315L390 279Z" fill="#232324" stroke="#3a2525"></path><path d="M484 179L430 169L433 217Z" fill="#a65057" stroke="#3a2525"></path><path d="M425 394L483 411L491 360Z" fill="#8e485b" stroke="#3a2525"></path><path d="M525 350L581 361L570 319Z" fill="#744259" stroke="#3a2525"></path><path d="M573 276L568 224L530 279Z" fill="#433546" stroke="#3a2525"></path><path d="M521 219L527 170L484 179Z" fill="#cf9728" stroke="#3a2525"></path><path d="M335 405L390 401L394 367Z" fill="#cf8036" stroke="#3a2525"></path><path d="M394 367L390 401L425 394Z" fill="#302c36" stroke="#3a2525"></path><path d="M425 447L474 446L483 411Z" fill="#433546" stroke="#3a2525"></path><path d="M342 180L335 227L374 227Z" fill="#433546" stroke="#3a2525"></path><path d="M374 227L335 227L343 262Z" fill="#5a3c52" stroke="#3a2525"></path><path d="M299 350L325 358L341 315Z" fill="#8e485b" stroke="#3a2525"></path><path d="M483 411L526 405L491 360Z" fill="#a65057" stroke="#3a2525"></path><path d="M568 224L527 170L521 219Z" fill="#8e485b" stroke="#3a2525"></path><path d="M484 179L469 132L430 169Z" fill="#433546" stroke="#3a2525"></path><path d="M430 169L377 173L433 217Z" fill="#ba5c4f" stroke="#3a2525"></path><path d="M567 398L581 361L525 350Z" fill="#5a3c52" stroke="#3a2525"></path><path d="M570 319L623 326L573 276Z" fill="#302c36" stroke="#3a2525"></path><path d="M299 350L341 315L288 305Z" fill="#c86d44" stroke="#3a2525"></path><path d="M341 315L325 358L394 367Z" fill="#8e485b" stroke="#3a2525"></path><path d="M526 405L567 398L525 350Z" fill="#744259" stroke="#3a2525"></path><path d="M519 126L469 132L484 179Z" fill="#cf8036" stroke="#3a2525"></path><path d="M430 169L420 126L377 173Z" fill="#433546" stroke="#3a2525"></path><path d="M337 144L342 180L377 173Z" fill="#302c36" stroke="#3a2525"></path><path d="M377 173L342 180L374 227Z" fill="#5a3c52" stroke="#3a2525"></path><path d="M425 447L483 411L425 394Z" fill="#cf8036" stroke="#3a2525"></path><path d="M483 411L523 438L526 405Z" fill="#c86d44" stroke="#3a2525"></path><path d="M526 405L523 438L567 398Z" fill="#a65057" stroke="#3a2525"></path><path d="M390 455L425 447L390 401Z" fill="#744259" stroke="#3a2525"></path><path d="M390 401L425 447L425 394Z" fill="#433546" stroke="#3a2525"></path><path d="M474 446L523 438L483 411Z" fill="#8e485b" stroke="#3a2525"></path><path d="M614 177L573 172L568 224Z" fill="#433546" stroke="#3a2525"></path><path d="M568 224L573 172L527 170Z" fill="#ba5c4f" stroke="#3a2525"></path><path d="M527 170L519 126L484 179Z" fill="#5a3c52" stroke="#3a2525"></path><path d="M625 258L568 224L573 276Z" fill="#232324" stroke="#3a2525"></path><path d="M469 132L420 126L430 169Z" fill="#302c36" stroke="#3a2525"></path><path d="M325 358L335 405L394 367Z" fill="#8e485b" stroke="#3a2525"></path><path d="M288 305L341 315L343 262Z" fill="#232324" stroke="#3a2525"></path><path d="M325 358L276 396L335 405Z" fill="#c86d44" stroke="#3a2525"></path><path d="M288 305L343 262L289 259Z" fill="#cf9728" stroke="#3a2525"></path><path d="M289 259L343 262L335 227Z" fill="#ba5c4f" stroke="#3a2525"></path><path d="M284 222L289 259L335 227Z" fill="#232324" stroke="#3a2525"></path><path d="M420 126L373 139L377 173Z" fill="#302c36" stroke="#3a2525"></path><path d="M630 369L623 326L581 361Z" fill="#232324" stroke="#3a2525"></path><path d="M581 361L623 326L570 319Z" fill="#232324" stroke="#3a2525"></path><path d="M623 326L625 258L573 276Z" fill="#302c36" stroke="#3a2525"></path><path d="M564 124L519 126L527 170Z" fill="#232324" stroke="#3a2525"></path><path d="M469 132L441 78L420 126Z" fill="#232324" stroke="#3a2525"></path><path d="M335 405L390 455L390 401Z" fill="#a65057" stroke="#3a2525"></path><path d="M425 447L426 491L474 446Z" fill="#cf8036" stroke="#3a2525"></path><path d="M287 190L335 227L342 180Z" fill="#433546" stroke="#3a2525"></path><path d="M287 190L284 222L335 227Z" fill="#cf8036" stroke="#3a2525"></path><path d="M289 259L248 276L288 305Z" fill="#433546" stroke="#3a2525"></path><path d="M665 222L628 217L625 258Z" fill="#a65057" stroke="#3a2525"></path><path d="M625 258L628 217L568 224Z" fill="#744259" stroke="#3a2525"></path><path d="M573 172L564 124L527 170Z" fill="#cf8036" stroke="#3a2525"></path><path d="M347 80L337 144L373 139Z" fill="#ba5c4f" stroke="#3a2525"></path><path d="M373 139L337 144L377 173Z" fill="#ba5c4f" stroke="#3a2525"></path><path d="M624 414L630 369L581 361Z" fill="#ba5c4f" stroke="#3a2525"></path><path d="M623 326L675 280L625 258Z" fill="#232324" stroke="#3a2525"></path><path d="M624 414L581 361L567 398Z" fill="#433546" stroke="#3a2525"></path><path d="M628 217L614 177L568 224Z" fill="#c86d44" stroke="#3a2525"></path><path d="M337 144L287 190L342 180Z" fill="#a65057" stroke="#3a2525"></path><path d="M625 133L564 124L573 172Z" fill="#8e485b" stroke="#3a2525"></path><path d="M519 126L491 93L469 132Z" fill="#a65057" stroke="#3a2525"></path><path d="M521 79L491 93L519 126Z" fill="#cf8036" stroke="#3a2525"></path><path d="M420 126L394 78L373 139Z" fill="#ba5c4f" stroke="#3a2525"></path><path d="M525 489L583 440L523 438Z" fill="#c86d44" stroke="#3a2525"></path><path d="M523 438L583 440L567 398Z" fill="#5a3c52" stroke="#3a2525"></path><path d="M525 489L523 438L474 446Z" fill="#232324" stroke="#3a2525"></path><path d="M372 490L426 491L390 455Z" fill="#cf9728" stroke="#3a2525"></path><path d="M390 455L426 491L425 447Z" fill="#ba5c4f" stroke="#3a2525"></path><path d="M234 232L289 259L284 222Z" fill="#ba5c4f" stroke="#3a2525"></path><path d="M234 232L248 276L289 259Z" fill="#cf8036" stroke="#3a2525"></path><path d="M288 305L248 306L299 350Z" fill="#302c36" stroke="#3a2525"></path><path d="M299 350L276 396L325 358Z" fill="#8e485b" stroke="#3a2525"></path><path d="M248 276L248 306L288 305Z" fill="#8e485b" stroke="#3a2525"></path><path d="M583 440L624 414L567 398Z" fill="#5a3c52" stroke="#3a2525"></path><path d="M241 363L276 396L299 350Z" fill="#c86d44" stroke="#3a2525"></path><path d="M335 405L327 459L390 455Z" fill="#ba5c4f" stroke="#3a2525"></path><path d="M491 93L441 78L469 132Z" fill="#5a3c52" stroke="#3a2525"></path><path d="M472 500L525 489L474 446Z" fill="#302c36" stroke="#3a2525"></path><path d="M583 440L629 439L624 414Z" fill="#744259" stroke="#3a2525"></path><path d="M426 491L472 500L474 446Z" fill="#302c36" stroke="#3a2525"></path><path d="M294 461L327 459L335 405Z" fill="#ba5c4f" stroke="#3a2525"></path><path d="M564 124L521 79L519 126Z" fill="#302c36" stroke="#3a2525"></path><path d="M490 41L443 41L441 78Z" fill="#cf9728" stroke="#3a2525"></path><path d="M678 314L623 326L670 357Z" fill="#302c36" stroke="#3a2525"></path><path d="M678 314L675 280L623 326Z" fill="#cf9728" stroke="#3a2525"></path><path d="M628 217L677 189L614 177Z" fill="#433546" stroke="#3a2525"></path><path d="M675 280L665 222L625 258Z" fill="#5a3c52" stroke="#3a2525"></path><path d="M614 177L625 133L573 172Z" fill="#744259" stroke="#3a2525"></path><path d="M564 124L586 85L521 79Z" fill="#744259" stroke="#3a2525"></path><path d="M441 78L394 78L420 126Z" fill="#c86d44" stroke="#3a2525"></path><path d="M337 144L277 128L287 190Z" fill="#8e485b" stroke="#3a2525"></path><path d="M346 488L372 490L390 455Z" fill="#cf8036" stroke="#3a2525"></path><path d="M423 540L471 540L472 500Z" fill="#a65057" stroke="#3a2525"></path><path d="M670 357L623 326L630 369Z" fill="#a65057" stroke="#3a2525"></path><path d="M668 410L670 357L630 369Z" fill="#c86d44" stroke="#3a2525"></path><path d="M248 306L241 363L299 350Z" fill="#302c36" stroke="#3a2525"></path><path d="M276 396L294 461L335 405Z" fill="#ba5c4f" stroke="#3a2525"></path><path d="M193 315L241 363L248 306Z" fill="#cf8036" stroke="#3a2525"></path><path d="M290 492L346 488L327 459Z" fill="#744259" stroke="#3a2525"></path><path d="M327 459L346 488L390 455Z" fill="#c86d44" stroke="#3a2525"></path><path d="M423 540L472 500L426 491Z" fill="#302c36" stroke="#3a2525"></path><path d="M661 134L625 133L614 177Z" fill="#ba5c4f" stroke="#3a2525"></path><path d="M287 190L234 232L284 222Z" fill="#302c36" stroke="#3a2525"></path><path d="M248 276L193 315L248 306Z" fill="#8e485b" stroke="#3a2525"></path><path d="M235 168L234 232L287 190Z" fill="#5a3c52" stroke="#3a2525"></path><path d="M630 492L629 439L583 440Z" fill="#5a3c52" stroke="#3a2525"></path><path d="M624 414L668 410L630 369Z" fill="#302c36" stroke="#3a2525"></path><path d="M394 78L347 80L373 139Z" fill="#ba5c4f" stroke="#3a2525"></path><path d="M241 363L247 399L276 396Z" fill="#744259" stroke="#3a2525"></path><path d="M235 446L294 461L276 396Z" fill="#cf8036" stroke="#3a2525"></path><path d="M347 80L277 128L337 144Z" fill="#c86d44" stroke="#3a2525"></path><path d="M625 133L586 85L564 124Z" fill="#8e485b" stroke="#3a2525"></path><path d="M539 540L580 495L525 489Z" fill="#8e485b" stroke="#3a2525"></path><path d="M525 489L580 495L583 440Z" fill="#cf9728" stroke="#3a2525"></path><path d="M714 186L677 189L665 222Z" fill="#c86d44" stroke="#3a2525"></path><path d="M665 222L677 189L628 217Z" fill="#433546" stroke="#3a2525"></path><path d="M625 133L631 85L586 85Z" fill="#302c36" stroke="#3a2525"></path><path d="M711 260L665 222L675 280Z" fill="#433546" stroke="#3a2525"></path><path d="M666 447L668 410L629 439Z" fill="#ba5c4f" stroke="#3a2525"></path><path d="M629 439L668 410L624 414Z" fill="#8e485b" stroke="#3a2525"></path><path d="M723 317L675 280L678 314Z" fill="#a65057" stroke="#3a2525"></path><path d="M443 41L386 51L394 78Z" fill="#cf8036" stroke="#3a2525"></path><path d="M394 78L386 51L347 80Z" fill="#cf8036" stroke="#3a2525"></path><path d="M233 101L246 128L277 128Z" fill="#5a3c52" stroke="#3a2525"></path><path d="M443 41L394 78L441 78Z" fill="#302c36" stroke="#3a2525"></path><path d="M441 78L491 93L490 41Z" fill="#8e485b" stroke="#3a2525"></path><path d="M490 41L491 93L521 79Z" fill="#5a3c52" stroke="#3a2525"></path><path d="M531 37L490 41L521 79Z" fill="#c86d44" stroke="#3a2525"></path><path d="M277 128L235 168L287 190Z" fill="#5a3c52" stroke="#3a2525"></path><path d="M423 540L426 491L386 540Z" fill="#cf9728" stroke="#3a2525"></path><path d="M472 500L471 540L525 489Z" fill="#cf8036" stroke="#3a2525"></path><path d="M386 540L372 490L331 540Z" fill="#433546" stroke="#3a2525"></path><path d="M386 540L426 491L372 490Z" fill="#232324" stroke="#3a2525"></path><path d="M677 189L661 134L614 177Z" fill="#744259" stroke="#3a2525"></path><path d="M723 317L678 314L725 356Z" fill="#cf9728" stroke="#3a2525"></path><path d="M723 317L711 260L675 280Z" fill="#302c36" stroke="#3a2525"></path><path d="M677 189L708 124L661 134Z" fill="#433546" stroke="#3a2525"></path><path d="M575 51L521 79L586 85Z" fill="#232324" stroke="#3a2525"></path><path d="M575 51L531 37L521 79Z" fill="#cf9728" stroke="#3a2525"></path><path d="M479 0L436 0L443 41Z" fill="#433546" stroke="#3a2525"></path><path d="M331 540L372 490L346 488Z" fill="#744259" stroke="#3a2525"></path><path d="M630 492L666 447L629 439Z" fill="#232324" stroke="#3a2525"></path><path d="M725 356L678 314L670 357Z" fill="#cf9728" stroke="#3a2525"></path><path d="M235 446L290 492L294 461Z" fill="#232324" stroke="#3a2525"></path><path d="M294 461L290 492L327 459Z" fill="#ba5c4f" stroke="#3a2525"></path><path d="M277 128L246 128L235 168Z" fill="#744259" stroke="#3a2525"></path><path d="M282 79L277 128L347 80Z" fill="#302c36" stroke="#3a2525"></path><path d="M186 266L248 276L234 232Z" fill="#c86d44" stroke="#3a2525"></path><path d="M186 266L193 315L248 276Z" fill="#302c36" stroke="#3a2525"></path><path d="M241 363L200 364L247 399Z" fill="#c86d44" stroke="#3a2525"></path><path d="M247 399L235 446L276 396Z" fill="#8e485b" stroke="#3a2525"></path><path d="M186 266L234 232L183 231Z" fill="#cf8036" stroke="#3a2525"></path><path d="M635 54L575 51L586 85Z" fill="#cf9728" stroke="#3a2525"></path><path d="M471 540L539 540L525 489Z" fill="#744259" stroke="#3a2525"></path><path d="M580 495L630 492L583 440Z" fill="#5a3c52" stroke="#3a2525"></path><path d="M193 315L200 364L241 363Z" fill="#5a3c52" stroke="#3a2525"></path><path d="M661 134L631 85L625 133Z" fill="#a65057" stroke="#3a2525"></path><path d="M622 540L630 492L580 495Z" fill="#744259" stroke="#3a2525"></path><path d="M725 356L670 357L713 410Z" fill="#744259" stroke="#3a2525"></path><path d="M183 231L234 232L186 181Z" fill="#ba5c4f" stroke="#3a2525"></path><path d="M184 404L235 446L247 399Z" fill="#5a3c52" stroke="#3a2525"></path><path d="M288 48L282 79L347 80Z" fill="#a65057" stroke="#3a2525"></path><path d="M758 275L726 235L711 260Z" fill="#744259" stroke="#3a2525"></path><path d="M711 260L726 235L665 222Z" fill="#232324" stroke="#3a2525"></path><path d="M661 134L665 86L631 85Z" fill="#ba5c4f" stroke="#3a2525"></path><path d="M726 235L714 186L665 222Z" fill="#cf9728" stroke="#3a2525"></path><path d="M713 410L670 357L668 410Z" fill="#c86d44" stroke="#3a2525"></path><path d="M723 317L758 275L711 260Z" fill="#cf8036" stroke="#3a2525"></path><path d="M539 540L576 540L580 495Z" fill="#cf8036" stroke="#3a2525"></path><path d="M186 181L234 232L235 168Z" fill="#5a3c52" stroke="#3a2525"></path><path d="M287 540L331 540L290 492Z" fill="#744259" stroke="#3a2525"></path><path d="M290 492L331 540L346 488Z" fill="#ba5c4f" stroke="#3a2525"></path><path d="M386 51L335 33L347 80Z" fill="#a65057" stroke="#3a2525"></path><path d="M388 0L335 33L386 51Z" fill="#c86d44" stroke="#3a2525"></path><path d="M388 0L386 51L443 41Z" fill="#a65057" stroke="#3a2525"></path><path d="M666 447L713 410L668 410Z" fill="#5a3c52" stroke="#3a2525"></path><path d="M719 444L713 410L666 447Z" fill="#744259" stroke="#3a2525"></path><path d="M479 0L490 41L522 0Z" fill="#c86d44" stroke="#3a2525"></path><path d="M479 0L443 41L490 41Z" fill="#8e485b" stroke="#3a2525"></path><path d="M522 0L490 41L531 37Z" fill="#c86d44" stroke="#3a2525"></path><path d="M708 124L665 86L661 134Z" fill="#232324" stroke="#3a2525"></path><path d="M631 85L635 54L586 85Z" fill="#744259" stroke="#3a2525"></path><path d="M577 0L522 0L531 37Z" fill="#5a3c52" stroke="#3a2525"></path><path d="M181 145L235 168L246 128Z" fill="#232324" stroke="#3a2525"></path><path d="M181 145L186 181L235 168Z" fill="#5a3c52" stroke="#3a2525"></path><path d="M282 79L233 101L277 128Z" fill="#8e485b" stroke="#3a2525"></path><path d="M247 49L233 101L282 79Z" fill="#232324" stroke="#3a2525"></path><path d="M330 0L288 48L335 33Z" fill="#232324" stroke="#3a2525"></path><path d="M335 33L288 48L347 80Z" fill="#c86d44" stroke="#3a2525"></path><path d="M622 540L666 493L630 492Z" fill="#8e485b" stroke="#3a2525"></path><path d="M630 492L666 493L666 447Z" fill="#744259" stroke="#3a2525"></path><path d="M665 86L635 54L631 85Z" fill="#5a3c52" stroke="#3a2525"></path><path d="M577 0L531 37L575 51Z" fill="#744259" stroke="#3a2525"></path><path d="M436 0L388 0L443 41Z" fill="#c86d44" stroke="#3a2525"></path><path d="M200 364L184 404L247 399Z" fill="#433546" stroke="#3a2525"></path><path d="M235 505L287 540L290 492Z" fill="#433546" stroke="#3a2525"></path><path d="M142 350L184 404L200 364Z" fill="#ba5c4f" stroke="#3a2525"></path><path d="M142 350L200 364L193 315Z" fill="#c86d44" stroke="#3a2525"></path><path d="M152 277L193 315L186 266Z" fill="#c86d44" stroke="#3a2525"></path><path d="M665 86L668 35L635 54Z" fill="#8e485b" stroke="#3a2525"></path><path d="M714 186L708 124L677 189Z" fill="#ba5c4f" stroke="#3a2525"></path><path d="M763 133L708 124L714 186Z" fill="#433546" stroke="#3a2525"></path><path d="M576 540L622 540L580 495Z" fill="#a65057" stroke="#3a2525"></path><path d="M760 325L723 317L725 356Z" fill="#744259" stroke="#3a2525"></path><path d="M760 325L758 275L723 317Z" fill="#c86d44" stroke="#3a2525"></path><path d="M726 235L761 185L714 186Z" fill="#302c36" stroke="#3a2525"></path><path d="M235 505L290 492L235 446Z" fill="#cf8036" stroke="#3a2525"></path><path d="M150 224L152 277L183 231Z" fill="#8e485b" stroke="#3a2525"></path><path d="M183 231L152 277L186 266Z" fill="#cf9728" stroke="#3a2525"></path><path d="M759 413L719 444L777 451Z" fill="#a65057" stroke="#3a2525"></path><path d="M666 493L719 444L666 447Z" fill="#744259" stroke="#3a2525"></path><path d="M765 359L760 325L725 356Z" fill="#cf9728" stroke="#3a2525"></path><path d="M765 359L725 356L759 413Z" fill="#cf8036" stroke="#3a2525"></path><path d="M152 277L151 310L193 315Z" fill="#232324" stroke="#3a2525"></path><path d="M152 407L193 448L184 404Z" fill="#a65057" stroke="#3a2525"></path><path d="M184 404L193 448L235 446Z" fill="#a65057" stroke="#3a2525"></path><path d="M191 485L235 505L235 446Z" fill="#cf9728" stroke="#3a2525"></path><path d="M233 101L181 145L246 128Z" fill="#cf8036" stroke="#3a2525"></path><path d="M186 181L150 224L183 231Z" fill="#ba5c4f" stroke="#3a2525"></path><path d="M183 85L181 145L233 101Z" fill="#ba5c4f" stroke="#3a2525"></path><path d="M629 0L577 0L575 51Z" fill="#744259" stroke="#3a2525"></path><path d="M811 219L764 233L818 268Z" fill="#c86d44" stroke="#3a2525"></path><path d="M758 275L764 233L726 235Z" fill="#8e485b" stroke="#3a2525"></path><path d="M143 177L150 224L186 181Z" fill="#8e485b" stroke="#3a2525"></path><path d="M102 369L142 350L93 323Z" fill="#232324" stroke="#3a2525"></path><path d="M388 0L330 0L335 33Z" fill="#5a3c52" stroke="#3a2525"></path><path d="M288 48L247 49L282 79Z" fill="#744259" stroke="#3a2525"></path><path d="M759 413L725 356L713 410Z" fill="#cf9728" stroke="#3a2525"></path><path d="M822 309L818 268L758 275Z" fill="#8e485b" stroke="#3a2525"></path><path d="M276 0L247 49L288 48Z" fill="#ba5c4f" stroke="#3a2525"></path><path d="M107 271L151 310L152 277Z" fill="#cf8036" stroke="#3a2525"></path><path d="M151 310L142 350L193 315Z" fill="#302c36" stroke="#3a2525"></path><path d="M764 233L761 185L726 235Z" fill="#302c36" stroke="#3a2525"></path><path d="M142 350L152 407L184 404Z" fill="#cf8036" stroke="#3a2525"></path><path d="M193 448L191 485L235 446Z" fill="#cf9728" stroke="#3a2525"></path><path d="M719 444L759 413L713 410Z" fill="#5a3c52" stroke="#3a2525"></path><path d="M726 487L719 444L666 493Z" fill="#744259" stroke="#3a2525"></path><path d="M718 38L668 35L665 86Z" fill="#302c36" stroke="#3a2525"></path><path d="M635 54L629 0L575 51Z" fill="#a65057" stroke="#3a2525"></path><path d="M724 92L665 86L708 124Z" fill="#c86d44" stroke="#3a2525"></path><path d="M136 456L191 485L193 448Z" fill="#cf9728" stroke="#3a2525"></path><path d="M235 505L232 540L287 540Z" fill="#cf9728" stroke="#3a2525"></path><path d="M763 133L724 92L708 124Z" fill="#cf8036" stroke="#3a2525"></path><path d="M146 131L143 177L181 145Z" fill="#8e485b" stroke="#3a2525"></path><path d="M181 145L143 177L186 181Z" fill="#232324" stroke="#3a2525"></path><path d="M150 224L107 271L152 277Z" fill="#744259" stroke="#3a2525"></path><path d="M622 540L674 540L666 493Z" fill="#232324" stroke="#3a2525"></path><path d="M674 540L726 487L666 493Z" fill="#a65057" stroke="#3a2525"></path><path d="M668 35L629 0L635 54Z" fill="#8e485b" stroke="#3a2525"></path><path d="M193 540L232 540L235 505Z" fill="#232324" stroke="#3a2525"></path><path d="M330 0L276 0L288 48Z" fill="#cf9728" stroke="#3a2525"></path><path d="M247 49L183 85L233 101Z" fill="#a65057" stroke="#3a2525"></path><path d="M180 42L183 85L247 49Z" fill="#cf9728" stroke="#3a2525"></path><path d="M804 188L763 133L761 185Z" fill="#a65057" stroke="#3a2525"></path><path d="M761 185L763 133L714 186Z" fill="#8e485b" stroke="#3a2525"></path><path d="M183 85L146 131L181 145Z" fill="#744259" stroke="#3a2525"></path><path d="M104 189L150 224L143 177Z" fill="#232324" stroke="#3a2525"></path><path d="M97 216L107 271L150 224Z" fill="#ba5c4f" stroke="#3a2525"></path><path d="M107 405L136 456L152 407Z" fill="#ba5c4f" stroke="#3a2525"></path><path d="M716 0L670 0L668 35Z" fill="#c86d44" stroke="#3a2525"></path><path d="M668 35L670 0L629 0Z" fill="#c86d44" stroke="#3a2525"></path><path d="M718 38L665 86L724 92Z" fill="#8e485b" stroke="#3a2525"></path><path d="M726 487L777 451L719 444Z" fill="#232324" stroke="#3a2525"></path><path d="M821 414L810 354L765 359Z" fill="#ba5c4f" stroke="#3a2525"></path><path d="M765 359L810 354L760 325Z" fill="#cf9728" stroke="#3a2525"></path><path d="M764 233L804 188L761 185Z" fill="#c86d44" stroke="#3a2525"></path><path d="M775 496L777 451L726 487Z" fill="#8e485b" stroke="#3a2525"></path><path d="M821 414L765 359L759 413Z" fill="#302c36" stroke="#3a2525"></path><path d="M818 268L764 233L758 275Z" fill="#433546" stroke="#3a2525"></path><path d="M811 219L804 188L764 233Z" fill="#ba5c4f" stroke="#3a2525"></path><path d="M759 79L718 38L724 92Z" fill="#744259" stroke="#3a2525"></path><path d="M152 407L136 456L193 448Z" fill="#232324" stroke="#3a2525"></path><path d="M191 485L193 540L235 505Z" fill="#5a3c52" stroke="#3a2525"></path><path d="M102 369L152 407L142 350Z" fill="#232324" stroke="#3a2525"></path><path d="M759 79L724 92L763 133Z" fill="#cf9728" stroke="#3a2525"></path><path d="M822 309L758 275L760 325Z" fill="#a65057" stroke="#3a2525"></path><path d="M93 323L142 350L151 310Z" fill="#232324" stroke="#3a2525"></path><path d="M142 497L193 540L191 485Z" fill="#5a3c52" stroke="#3a2525"></path><path d="M107 271L93 323L151 310Z" fill="#c86d44" stroke="#3a2525"></path><path d="M96 129L104 189L143 177Z" fill="#8e485b" stroke="#3a2525"></path><path d="M107 271L58 306L93 323Z" fill="#c86d44" stroke="#3a2525"></path><path d="M810 354L822 309L760 325Z" fill="#a65057" stroke="#3a2525"></path><path d="M104 189L97 216L150 224Z" fill="#232324" stroke="#3a2525"></path><path d="M276 0L229 0L247 49Z" fill="#ba5c4f" stroke="#3a2525"></path><path d="M183 85L134 88L146 131Z" fill="#cf8036" stroke="#3a2525"></path><path d="M146 131L96 129L143 177Z" fill="#cf8036" stroke="#3a2525"></path><path d="M816 95L759 79L763 133Z" fill="#433546" stroke="#3a2525"></path><path d="M674 540L725 540L726 487Z" fill="#232324" stroke="#3a2525"></path><path d="M102 369L107 405L152 407Z" fill="#8e485b" stroke="#3a2525"></path><path d="M88 456L107 405L56 412Z" fill="#433546" stroke="#3a2525"></path><path d="M203 0L180 42L247 49Z" fill="#8e485b" stroke="#3a2525"></path><path d="M101 486L142 497L136 456Z" fill="#ba5c4f" stroke="#3a2525"></path><path d="M136 456L142 497L191 485Z" fill="#5a3c52" stroke="#3a2525"></path><path d="M144 56L134 88L183 85Z" fill="#ba5c4f" stroke="#3a2525"></path><path d="M725 540L775 496L726 487Z" fill="#cf8036" stroke="#3a2525"></path><path d="M814 438L821 414L759 413Z" fill="#5a3c52" stroke="#3a2525"></path><path d="M810 354L855 315L822 309Z" fill="#433546" stroke="#3a2525"></path><path d="M229 0L203 0L247 49Z" fill="#cf9728" stroke="#3a2525"></path><path d="M180 42L144 56L183 85Z" fill="#8e485b" stroke="#3a2525"></path><path d="M814 438L759 413L777 451Z" fill="#302c36" stroke="#3a2525"></path><path d="M779 0L716 0L718 38Z" fill="#c86d44" stroke="#3a2525"></path><path d="M718 38L716 0L668 35Z" fill="#5a3c52" stroke="#3a2525"></path><path d="M812 505L814 438L777 451Z" fill="#302c36" stroke="#3a2525"></path><path d="M137 0L144 56L180 42Z" fill="#232324" stroke="#3a2525"></path><path d="M92 85L96 129L134 88Z" fill="#a65057" stroke="#3a2525"></path><path d="M134 88L96 129L146 131Z" fill="#5a3c52" stroke="#3a2525"></path><path d="M43 185L52 230L97 216Z" fill="#232324" stroke="#3a2525"></path><path d="M58 269L58 306L107 271Z" fill="#744259" stroke="#3a2525"></path><path d="M58 269L107 271L97 216Z" fill="#cf9728" stroke="#3a2525"></path><path d="M93 323L50 371L102 369Z" fill="#ba5c4f" stroke="#3a2525"></path><path d="M107 405L88 456L136 456Z" fill="#433546" stroke="#3a2525"></path><path d="M52 230L58 269L97 216Z" fill="#5a3c52" stroke="#3a2525"></path><path d="M870 359L855 315L810 354Z" fill="#744259" stroke="#3a2525"></path><path d="M822 309L858 259L818 268Z" fill="#232324" stroke="#3a2525"></path><path d="M818 268L858 259L811 219Z" fill="#5a3c52" stroke="#3a2525"></path><path d="M853 146L826 129L804 188Z" fill="#232324" stroke="#3a2525"></path><path d="M870 359L810 354L821 414Z" fill="#c86d44" stroke="#3a2525"></path><path d="M853 146L804 188L868 175Z" fill="#744259" stroke="#3a2525"></path><path d="M804 188L826 129L763 133Z" fill="#ba5c4f" stroke="#3a2525"></path><path d="M759 79L779 37L718 38Z" fill="#cf8036" stroke="#3a2525"></path><path d="M855 315L858 259L822 309Z" fill="#302c36" stroke="#3a2525"></path><path d="M56 412L107 405L102 369Z" fill="#cf8036" stroke="#3a2525"></path><path d="M142 497L136 540L193 540Z" fill="#232324" stroke="#3a2525"></path><path d="M88 456L101 486L136 456Z" fill="#cf8036" stroke="#3a2525"></path><path d="M725 540L776 540L775 496Z" fill="#232324" stroke="#3a2525"></path><path d="M775 496L812 505L777 451Z" fill="#232324" stroke="#3a2525"></path><path d="M101 486L136 540L142 497Z" fill="#cf9728" stroke="#3a2525"></path><path d="M826 129L816 95L763 133Z" fill="#744259" stroke="#3a2525"></path><path d="M43 185L97 216L104 189Z" fill="#cf8036" stroke="#3a2525"></path><path d="M58 269L0 276L58 306Z" fill="#a65057" stroke="#3a2525"></path><path d="M816 95L779 37L759 79Z" fill="#8e485b" stroke="#3a2525"></path><path d="M0 326L50 371L58 306Z" fill="#cf9728" stroke="#3a2525"></path><path d="M58 306L50 371L93 323Z" fill="#232324" stroke="#3a2525"></path><path d="M88 456L59 460L101 486Z" fill="#5a3c52" stroke="#3a2525"></path><path d="M776 540L812 505L775 496Z" fill="#cf9728" stroke="#3a2525"></path><path d="M875 414L870 359L821 414Z" fill="#433546" stroke="#3a2525"></path><path d="M144 56L92 85L134 88Z" fill="#ba5c4f" stroke="#3a2525"></path><path d="M96 129L43 185L104 189Z" fill="#cf8036" stroke="#3a2525"></path><path d="M85 50L92 85L144 56Z" fill="#433546" stroke="#3a2525"></path><path d="M50 371L56 412L102 369Z" fill="#cf9728" stroke="#3a2525"></path><path d="M875 414L821 414L872 458Z" fill="#cf8036" stroke="#3a2525"></path><path d="M915 265L875 220L858 259Z" fill="#cf8036" stroke="#3a2525"></path><path d="M826 129L871 98L816 95Z" fill="#5a3c52" stroke="#3a2525"></path><path d="M815 0L779 0L779 37Z" fill="#a65057" stroke="#3a2525"></path><path d="M868 175L804 188L811 219Z" fill="#5a3c52" stroke="#3a2525"></path><path d="M875 220L811 219L858 259Z" fill="#744259" stroke="#3a2525"></path><path d="M901 215L875 220L915 265Z" fill="#cf8036" stroke="#3a2525"></path><path d="M46 125L43 185L96 129Z" fill="#a65057" stroke="#3a2525"></path><path d="M52 230L0 276L58 269Z" fill="#a65057" stroke="#3a2525"></path><path d="M875 220L868 175L811 219Z" fill="#433546" stroke="#3a2525"></path><path d="M203 0L137 0L180 42Z" fill="#8e485b" stroke="#3a2525"></path><path d="M822 41L779 37L816 95Z" fill="#ba5c4f" stroke="#3a2525"></path><path d="M779 37L779 0L718 38Z" fill="#302c36" stroke="#3a2525"></path><path d="M822 41L816 95L860 50Z" fill="#cf8036" stroke="#3a2525"></path><path d="M0 447L59 460L56 412Z" fill="#8e485b" stroke="#3a2525"></path><path d="M56 412L59 460L88 456Z" fill="#232324" stroke="#3a2525"></path><path d="M101 486L85 540L136 540Z" fill="#8e485b" stroke="#3a2525"></path><path d="M872 458L821 414L814 438Z" fill="#744259" stroke="#3a2525"></path><path d="M915 265L858 259L855 315Z" fill="#8e485b" stroke="#3a2525"></path><path d="M137 0L85 50L144 56Z" fill="#cf9728" stroke="#3a2525"></path><path d="M92 85L46 125L96 129Z" fill="#c86d44" stroke="#3a2525"></path><path d="M871 98L826 129L853 146Z" fill="#cf8036" stroke="#3a2525"></path><path d="M37 80L46 125L92 85Z" fill="#8e485b" stroke="#3a2525"></path><path d="M776 540L825 540L812 505Z" fill="#5a3c52" stroke="#3a2525"></path><path d="M854 502L872 458L814 438Z" fill="#cf9728" stroke="#3a2525"></path><path d="M59 540L85 540L38 506Z" fill="#5a3c52" stroke="#3a2525"></path><path d="M854 502L814 438L812 505Z" fill="#8e485b" stroke="#3a2525"></path><path d="M875 220L901 215L868 175Z" fill="#302c36" stroke="#3a2525"></path><path d="M905 100L871 98L853 146Z" fill="#5a3c52" stroke="#3a2525"></path><path d="M915 265L855 315L922 317Z" fill="#8e485b" stroke="#3a2525"></path><path d="M855 315L870 359L922 317Z" fill="#302c36" stroke="#3a2525"></path><path d="M825 540L854 502L812 505Z" fill="#ba5c4f" stroke="#3a2525"></path><path d="M923 146L853 146L868 175Z" fill="#5a3c52" stroke="#3a2525"></path><path d="M0 228L52 230L43 185Z" fill="#ba5c4f" stroke="#3a2525"></path><path d="M0 228L0 276L52 230Z" fill="#302c36" stroke="#3a2525"></path><path d="M50 371L0 398L56 412Z" fill="#ba5c4f" stroke="#3a2525"></path><path d="M0 276L0 326L58 306Z" fill="#744259" stroke="#3a2525"></path><path d="M38 506L85 540L101 486Z" fill="#cf9728" stroke="#3a2525"></path><path d="M922 317L870 359L921 358Z" fill="#c86d44" stroke="#3a2525"></path><path d="M905 100L860 50L871 98Z" fill="#a65057" stroke="#3a2525"></path><path d="M872 0L815 0L822 41Z" fill="#cf8036" stroke="#3a2525"></path><path d="M822 41L815 0L779 37Z" fill="#302c36" stroke="#3a2525"></path><path d="M0 180L0 228L43 185Z" fill="#744259" stroke="#3a2525"></path><path d="M0 326L0 368L50 371Z" fill="#5a3c52" stroke="#3a2525"></path><path d="M912 395L870 359L875 414Z" fill="#cf8036" stroke="#3a2525"></path><path d="M44 52L37 80L92 85Z" fill="#232324" stroke="#3a2525"></path><path d="M0 140L0 180L43 185Z" fill="#744259" stroke="#3a2525"></path><path d="M44 52L92 85L85 50Z" fill="#8e485b" stroke="#3a2525"></path><path d="M917 454L875 414L872 458Z" fill="#302c36" stroke="#3a2525"></path><path d="M917 454L912 395L875 414Z" fill="#cf9728" stroke="#3a2525"></path><path d="M137 0L87 0L85 50Z" fill="#302c36" stroke="#3a2525"></path><path d="M871 98L860 50L816 95Z" fill="#ba5c4f" stroke="#3a2525"></path><path d="M912 172L868 175L901 215Z" fill="#232324" stroke="#3a2525"></path><path d="M0 140L43 185L46 125Z" fill="#cf8036" stroke="#3a2525"></path><path d="M0 368L0 398L50 371Z" fill="#232324" stroke="#3a2525"></path><path d="M912 395L921 358L870 359Z" fill="#744259" stroke="#3a2525"></path><path d="M923 146L912 172L960 181Z" fill="#c86d44" stroke="#3a2525"></path><path d="M960 181L912 172L901 215Z" fill="#232324" stroke="#3a2525"></path><path d="M38 506L101 486L59 460Z" fill="#5a3c52" stroke="#3a2525"></path><path d="M0 447L38 506L59 460Z" fill="#c86d44" stroke="#3a2525"></path><path d="M825 540L856 540L854 502Z" fill="#8e485b" stroke="#3a2525"></path><path d="M915 483L917 454L872 458Z" fill="#ba5c4f" stroke="#3a2525"></path><path d="M52 0L44 52L85 50Z" fill="#ba5c4f" stroke="#3a2525"></path><path d="M0 79L0 140L46 125Z" fill="#c86d44" stroke="#3a2525"></path><path d="M0 79L46 125L37 80Z" fill="#cf9728" stroke="#3a2525"></path><path d="M0 398L0 447L56 412Z" fill="#8e485b" stroke="#3a2525"></path><path d="M38 506L0 540L59 540Z" fill="#ba5c4f" stroke="#3a2525"></path><path d="M923 146L905 100L853 146Z" fill="#a65057" stroke="#3a2525"></path><path d="M960 227L901 215L915 265Z" fill="#cf9728" stroke="#3a2525"></path><path d="M912 172L923 146L868 175Z" fill="#a65057" stroke="#3a2525"></path><path d="M915 483L872 458L854 502Z" fill="#cf8036" stroke="#3a2525"></path><path d="M960 365L960 317L921 358Z" fill="#ba5c4f" stroke="#3a2525"></path><path d="M87 0L52 0L85 50Z" fill="#cf8036" stroke="#3a2525"></path><path d="M44 52L0 79L37 80Z" fill="#cf8036" stroke="#3a2525"></path><path d="M910 540L915 483L854 502Z" fill="#cf8036" stroke="#3a2525"></path><path d="M0 41L0 79L44 52Z" fill="#302c36" stroke="#3a2525"></path><path d="M960 317L960 267L922 317Z" fill="#744259" stroke="#3a2525"></path><path d="M922 317L960 267L915 265Z" fill="#8e485b" stroke="#3a2525"></path><path d="M960 317L922 317L921 358Z" fill="#302c36" stroke="#3a2525"></path><path d="M921 358L912 395L960 365Z" fill="#433546" stroke="#3a2525"></path><path d="M960 365L912 395L960 415Z" fill="#cf8036" stroke="#3a2525"></path><path d="M0 447L0 505L38 506Z" fill="#744259" stroke="#3a2525"></path><path d="M923 45L872 0L860 50Z" fill="#5a3c52" stroke="#3a2525"></path><path d="M860 50L872 0L822 41Z" fill="#232324" stroke="#3a2525"></path><path d="M923 45L860 50L905 100Z" fill="#a65057" stroke="#3a2525"></path><path d="M960 267L960 227L915 265Z" fill="#302c36" stroke="#3a2525"></path><path d="M960 82L923 45L905 100Z" fill="#c86d44" stroke="#3a2525"></path><path d="M960 415L912 395L917 454Z" fill="#232324" stroke="#3a2525"></path><path d="M960 227L960 181L901 215Z" fill="#232324" stroke="#3a2525"></path><path d="M52 0L0 41L44 52Z" fill="#c86d44" stroke="#3a2525"></path><path d="M856 540L910 540L854 502Z" fill="#c86d44" stroke="#3a2525"></path><path d="M960 438L960 415L917 454Z" fill="#cf8036" stroke="#3a2525"></path><path d="M960 438L917 454L960 494Z" fill="#ba5c4f" stroke="#3a2525"></path><path d="M0 505L0 540L38 506Z" fill="#5a3c52" stroke="#3a2525"></path><path d="M960 494L917 454L915 483Z" fill="#433546" stroke="#3a2525"></path><path d="M960 134L905 100L923 146Z" fill="#cf8036" stroke="#3a2525"></path><path d="M960 181L960 134L923 146Z" fill="#cf8036" stroke="#3a2525"></path><path d="M52 0L0 0L0 41Z" fill="#8e485b" stroke="#3a2525"></path><path d="M923 45L914 0L872 0Z" fill="#ba5c4f" stroke="#3a2525"></path><path d="M960 37L914 0L923 45Z" fill="#a65057" stroke="#3a2525"></path><path d="M960 134L960 82L905 100Z" fill="#302c36" stroke="#3a2525"></path><path d="M910 540L960 494L915 483Z" fill="#a65057" stroke="#3a2525"></path><path d="M960 82L960 37L923 45Z" fill="#232324" stroke="#3a2525"></path><path d="M910 540L960 540L960 494Z" fill="#ba5c4f" stroke="#3a2525"></path><path d="M960 37L960 0L914 0Z" fill="#744259" stroke="#3a2525"></path></g></svg>